<svg width="37" height="38" viewBox="0 0 37 38" fill="none" xmlns="http://www.w3.org/2000/svg">
<path d="M17.5928 0.000924931C17.4243 0.00248743 17.2575 0.00623744 17.0923 0.0131124C11.3673 0.252487 7.68727 3.62921 6.20125 7.36421C5.28672 9.66264 5.23813 12.0879 6.05961 13.9876C6.88109 15.8876 8.52227 17.312 11.2866 17.7255C12.7593 17.9457 14.2087 18.1857 15.608 18.4677C20.2862 16.5029 21.1719 12.8302 22.3756 9.4685C22.9799 7.78085 23.6473 6.15311 25.022 5.04233C26.0187 4.23686 27.3495 3.77577 29.1212 3.74835C26.8939 2.14874 24.2758 0.971472 21.3795 0.381706C20.0341 0.107722 18.7723 -0.0107939 17.5927 0.000768618L17.5928 0.000924931ZM29.1139 5.19858C27.6264 5.21757 26.6598 5.59858 25.94 6.18014C24.9386 6.98921 24.3362 8.32233 23.7502 9.95936C22.7177 12.8425 21.6746 16.612 17.832 18.9658C21.116 19.7837 23.9981 20.9187 26.0498 22.6767C27.7189 24.1069 28.8109 26.0037 28.9722 28.3603C29.0925 30.1175 28.7144 32.1082 27.7808 34.3905C35.6758 28.6248 37.9264 21.3293 36.565 14.9155C35.7968 11.2966 33.8582 7.95022 31.0694 5.34514C30.3313 5.23717 29.6836 5.19139 29.1139 5.19866V5.19858ZM5.02203 6.40483C3.42203 6.90678 1.74062 7.76296 0.000156164 9.03413L0 37.0931H18.0371C18.9095 35.273 19.5855 33.4413 20.083 31.6267C17.3842 31.537 14.8195 30.6431 12.6953 29.2001C8.87406 26.6039 6.40727 22.1871 7.05078 17.5423C6.00063 16.7448 5.21836 15.7205 4.7193 14.5662C3.71227 12.2376 3.80914 9.43108 4.84617 6.8246C4.90219 6.68382 4.96023 6.54436 5.02195 6.40475L5.02203 6.40483ZM16.3233 8.52389C18.1523 8.52389 19.6363 10.0058 19.6363 11.8344C19.6363 13.663 18.1523 15.1449 16.3233 15.1449C14.4942 15.1449 13.0127 13.663 13.0127 11.8344C13.0127 10.0058 14.4942 8.52382 16.3233 8.52382V8.52389ZM8.435 18.3823C8.16156 22.2046 10.2617 25.7833 13.5156 27.994C17.0073 30.3662 21.7414 31.1143 26.2232 28.7485C25.7649 28.6744 25.3116 28.5725 24.8657 28.4433C23.8334 27.067 23.2987 25.1178 23.4057 23.5068C23.4239 23.2299 23.4631 22.9548 23.5229 22.6839C23.1049 22.4411 22.6596 22.2112 22.1874 21.9955C22.0577 22.4462 21.9805 22.9219 21.9482 23.409C21.8591 24.7503 22.1052 26.1981 22.666 27.5178C19.8623 25.9205 18.3368 23.1872 18.1176 20.5744C15.9607 19.9912 13.5612 19.543 11.0717 19.1707C10.0952 19.0246 9.21547 18.7541 8.435 18.382V18.3823Z" fill="white"/>
</svg>
