<svg width="39" height="38" viewBox="0 0 39 38" fill="none" xmlns="http://www.w3.org/2000/svg">
<path d="M40 11.8L36.5657 13.8L28.4849 0L31.9192 -2L40 11.8ZM15.5556 9.8L21.6162 20.2L33.9394 13.2L27.8788 2.8L15.5556 9.8ZM18.7879 19.4L14.7475 12.4L6.06061 17.4L10.101 24.4L18.7879 19.4ZM0 23.2L2.0202 26.6L7.27273 23.6L5.25253 20.2L0 23.2ZM20.202 22L19.596 21.2L10.9091 26.2L11.5152 27C11.9192 27.6 12.5253 28.2 13.1313 28.6L9.89899 38H13.9394L16.7677 29.4H16.9697L20 38H24.0404L20.202 26.8C21.2121 25.4 21.2121 23.6 20.202 22Z" fill="white"/>
</svg>
